<svg xmlns="http://www.w3.org/2000/svg" xmlns:xlink="http://www.w3.org/1999/xlink" width="150" zoomAndPan="magnify" viewBox="0 0 112.5 30.000001" height="40" preserveAspectRatio="xMidYMid meet" version="1.0"><defs><g/><clipPath id="a8a15fcbb4"><path d="M 29 2 L 110.445312 2 L 110.445312 26 L 29 26 Z M 29 2 " clip-rule="nonzero"/></clipPath><clipPath id="58062d1540"><path d="M 0.445312 5 L 13 5 L 13 19 L 0.445312 19 Z M 0.445312 5 " clip-rule="nonzero"/></clipPath><clipPath id="f07cba6c84"><rect x="0" width="82" y="0" height="24"/></clipPath><clipPath id="62a004d31a"><path d="M 4 1.21875 L 8 1.21875 L 8 7 L 4 7 Z M 4 1.21875 " clip-rule="nonzero"/></clipPath><clipPath id="f5a702f755"><path d="M 18 1.21875 L 22 1.21875 L 22 7 L 18 7 Z M 18 1.21875 " clip-rule="nonzero"/></clipPath><clipPath id="6283a00dc5"><path d="M 11 1.21875 L 15 1.21875 L 15 7 L 11 7 Z M 11 1.21875 " clip-rule="nonzero"/></clipPath><clipPath id="44b5da3bba"><path d="M 1.574219 3 L 24.074219 3 L 24.074219 25.894531 L 1.574219 25.894531 Z M 1.574219 3 " clip-rule="nonzero"/></clipPath></defs><g clip-path="url(#a8a15fcbb4)"><g transform="matrix(1, 0, 0, 1, 29, 2)"><g clip-path="url(#f07cba6c84)"><g clip-path="url(#58062d1540)"><g fill="#ffffff" fill-opacity="1"><g transform="translate(0.482128, 18.743932)"><g><path d="M 9.078125 -3.5 L 9.40625 -3.734375 C 9.820312 -3.984375 10.113281 -4.109375 10.28125 -4.109375 C 10.65625 -4.109375 11.0625 -3.765625 11.5 -3.078125 C 11.769531 -2.648438 11.90625 -2.304688 11.90625 -2.046875 C 11.90625 -1.796875 11.820312 -1.585938 11.65625 -1.421875 C 11.5 -1.253906 11.3125 -1.101562 11.09375 -0.96875 C 10.875 -0.832031 10.660156 -0.703125 10.453125 -0.578125 C 10.253906 -0.460938 9.84375 -0.304688 9.21875 -0.109375 C 8.601562 0.0859375 8.003906 0.1875 7.421875 0.1875 C 6.847656 0.1875 6.265625 0.109375 5.671875 -0.046875 C 5.085938 -0.203125 4.484375 -0.457031 3.859375 -0.8125 C 3.234375 -1.164062 2.671875 -1.601562 2.171875 -2.125 C 1.671875 -2.644531 1.257812 -3.304688 0.9375 -4.109375 C 0.613281 -4.921875 0.453125 -5.800781 0.453125 -6.75 C 0.453125 -7.695312 0.609375 -8.554688 0.921875 -9.328125 C 1.242188 -10.097656 1.648438 -10.734375 2.140625 -11.234375 C 2.628906 -11.742188 3.191406 -12.171875 3.828125 -12.515625 C 5.015625 -13.171875 6.210938 -13.5 7.421875 -13.5 C 7.992188 -13.5 8.570312 -13.410156 9.15625 -13.234375 C 9.75 -13.054688 10.195312 -12.875 10.5 -12.6875 L 10.9375 -12.4375 C 11.15625 -12.300781 11.328125 -12.191406 11.453125 -12.109375 C 11.765625 -11.847656 11.921875 -11.554688 11.921875 -11.234375 C 11.921875 -10.921875 11.796875 -10.585938 11.546875 -10.234375 C 11.066406 -9.578125 10.640625 -9.25 10.265625 -9.25 C 10.046875 -9.25 9.738281 -9.378906 9.34375 -9.640625 C 8.820312 -10.054688 8.140625 -10.265625 7.296875 -10.265625 C 6.503906 -10.265625 5.722656 -9.992188 4.953125 -9.453125 C 4.585938 -9.179688 4.285156 -8.800781 4.046875 -8.3125 C 3.804688 -7.820312 3.6875 -7.269531 3.6875 -6.65625 C 3.6875 -6.050781 3.804688 -5.503906 4.046875 -5.015625 C 4.285156 -4.523438 4.597656 -4.140625 4.984375 -3.859375 C 5.722656 -3.328125 6.492188 -3.0625 7.296875 -3.0625 C 7.671875 -3.0625 8.023438 -3.109375 8.359375 -3.203125 C 8.691406 -3.304688 8.929688 -3.40625 9.078125 -3.5 Z M 9.078125 -3.5 "/></g></g></g></g><g fill="#ffffff" fill-opacity="1"><g transform="translate(12.489681, 18.743932)"><g><path d="M 6.96875 -8.59375 C 7.039062 -9.269531 7.519531 -9.609375 8.40625 -9.609375 C 8.882812 -9.609375 9.238281 -9.570312 9.46875 -9.5 C 9.695312 -9.425781 9.851562 -9.296875 9.9375 -9.109375 C 10.03125 -8.929688 10.085938 -8.769531 10.109375 -8.625 C 10.128906 -8.488281 10.140625 -8.28125 10.140625 -8 L 10.140625 -1.625 C 10.140625 -1.34375 10.128906 -1.128906 10.109375 -0.984375 C 10.085938 -0.847656 10.035156 -0.691406 9.953125 -0.515625 C 9.785156 -0.191406 9.367188 -0.03125 8.703125 -0.03125 C 8.046875 -0.03125 7.601562 -0.113281 7.375 -0.28125 C 7.144531 -0.445312 7.015625 -0.6875 6.984375 -1 C 6.535156 -0.351562 5.785156 -0.03125 4.734375 -0.03125 C 3.679688 -0.03125 2.703125 -0.507812 1.796875 -1.46875 C 0.898438 -2.4375 0.453125 -3.554688 0.453125 -4.828125 C 0.453125 -6.097656 0.90625 -7.207031 1.8125 -8.15625 C 2.71875 -9.113281 3.710938 -9.59375 4.796875 -9.59375 C 5.210938 -9.59375 5.585938 -9.519531 5.921875 -9.375 C 6.265625 -9.226562 6.503906 -9.085938 6.640625 -8.953125 C 6.773438 -8.828125 6.882812 -8.707031 6.96875 -8.59375 Z M 3.640625 -4.78125 C 3.640625 -4.382812 3.796875 -4.023438 4.109375 -3.703125 C 4.429688 -3.390625 4.816406 -3.234375 5.265625 -3.234375 C 5.710938 -3.234375 6.085938 -3.394531 6.390625 -3.71875 C 6.691406 -4.050781 6.84375 -4.410156 6.84375 -4.796875 C 6.84375 -5.191406 6.695312 -5.5625 6.40625 -5.90625 C 6.125 -6.25 5.742188 -6.421875 5.265625 -6.421875 C 4.785156 -6.421875 4.394531 -6.25 4.09375 -5.90625 C 3.789062 -5.5625 3.640625 -5.1875 3.640625 -4.78125 Z M 3.640625 -4.78125 "/></g></g></g><g fill="#ffffff" fill-opacity="1"><g transform="translate(23.349514, 18.743932)"><g><path d="M 0.734375 -12.53125 C 0.734375 -12.8125 0.738281 -13.019531 0.75 -13.15625 C 0.769531 -13.289062 0.820312 -13.453125 0.90625 -13.640625 C 1.082031 -13.960938 1.554688 -14.125 2.328125 -14.125 C 3.078125 -14.125 3.539062 -13.960938 3.71875 -13.640625 C 3.8125 -13.453125 3.867188 -13.285156 3.890625 -13.140625 C 3.910156 -12.992188 3.921875 -12.785156 3.921875 -12.515625 L 3.921875 -4.0625 C 3.921875 -3.625 3.957031 -3.347656 4.03125 -3.234375 C 4.101562 -3.117188 4.265625 -3.0625 4.515625 -3.0625 C 4.765625 -3.0625 4.929688 -3.050781 5.015625 -3.03125 C 5.097656 -3.019531 5.203125 -2.96875 5.328125 -2.875 C 5.566406 -2.71875 5.6875 -2.289062 5.6875 -1.59375 C 5.6875 -0.820312 5.566406 -0.351562 5.328125 -0.1875 C 5.003906 0.03125 4.25 0.0664062 3.0625 -0.078125 C 2.125 -0.191406 1.515625 -0.5 1.234375 -1 C 0.898438 -1.59375 0.734375 -2.539062 0.734375 -3.84375 Z M 0.734375 -12.53125 "/></g></g></g><g fill="#ffffff" fill-opacity="1"><g transform="translate(29.125525, 18.743932)"><g><path d="M 10 -5.953125 C 10 -5.203125 9.8125 -4.644531 9.4375 -4.28125 C 9.0625 -3.925781 8.648438 -3.75 8.203125 -3.75 L 3.890625 -3.75 C 3.890625 -3.414062 4.085938 -3.128906 4.484375 -2.890625 C 4.890625 -2.660156 5.289062 -2.546875 5.6875 -2.546875 C 6.394531 -2.546875 6.945312 -2.617188 7.34375 -2.765625 L 7.546875 -2.84375 C 7.835938 -2.976562 8.082031 -3.046875 8.28125 -3.046875 C 8.664062 -3.046875 9 -2.769531 9.28125 -2.21875 C 9.4375 -1.894531 9.515625 -1.617188 9.515625 -1.390625 C 9.515625 -0.304688 8.222656 0.234375 5.640625 0.234375 C 4.734375 0.234375 3.929688 0.0820312 3.234375 -0.21875 C 2.535156 -0.53125 1.992188 -0.941406 1.609375 -1.453125 C 0.835938 -2.441406 0.453125 -3.546875 0.453125 -4.765625 C 0.453125 -6.296875 0.945312 -7.519531 1.9375 -8.4375 C 2.925781 -9.351562 4.164062 -9.8125 5.65625 -9.8125 C 7.34375 -9.8125 8.582031 -9.210938 9.375 -8.015625 C 9.789062 -7.390625 10 -6.703125 10 -5.953125 Z M 6.140625 -5.421875 C 6.609375 -5.421875 6.84375 -5.613281 6.84375 -6 C 6.84375 -6.28125 6.734375 -6.503906 6.515625 -6.671875 C 6.304688 -6.835938 6.003906 -6.921875 5.609375 -6.921875 C 5.210938 -6.921875 4.816406 -6.757812 4.421875 -6.4375 C 4.035156 -6.125 3.84375 -5.785156 3.84375 -5.421875 Z M 6.140625 -5.421875 "/></g></g></g><g fill="#ffffff" fill-opacity="1"><g transform="translate(39.566269, 18.743932)"><g><path d="M 6.078125 -9.609375 C 7.285156 -9.609375 8.296875 -9.140625 9.109375 -8.203125 C 9.921875 -7.273438 10.328125 -6.144531 10.328125 -4.8125 L 10.328125 -1.609375 C 10.328125 -1.328125 10.316406 -1.113281 10.296875 -0.96875 C 10.273438 -0.832031 10.222656 -0.679688 10.140625 -0.515625 C 9.972656 -0.179688 9.5 -0.015625 8.71875 -0.015625 C 7.851562 -0.015625 7.351562 -0.238281 7.21875 -0.6875 C 7.144531 -0.894531 7.109375 -1.207031 7.109375 -1.625 L 7.109375 -4.828125 C 7.109375 -5.328125 6.960938 -5.71875 6.671875 -6 C 6.390625 -6.28125 6.007812 -6.421875 5.53125 -6.421875 C 5.050781 -6.421875 4.660156 -6.273438 4.359375 -5.984375 C 4.066406 -5.691406 3.921875 -5.304688 3.921875 -4.828125 L 3.921875 -1.609375 C 3.921875 -1.328125 3.910156 -1.113281 3.890625 -0.96875 C 3.867188 -0.832031 3.8125 -0.679688 3.71875 -0.515625 C 3.5625 -0.179688 3.09375 -0.015625 2.3125 -0.015625 C 1.550781 -0.015625 1.082031 -0.179688 0.90625 -0.515625 C 0.820312 -0.691406 0.769531 -0.847656 0.75 -0.984375 C 0.738281 -1.128906 0.734375 -1.34375 0.734375 -1.625 L 0.734375 -8.078125 C 0.734375 -8.347656 0.738281 -8.550781 0.75 -8.6875 C 0.769531 -8.820312 0.832031 -8.976562 0.9375 -9.15625 C 1.101562 -9.457031 1.566406 -9.609375 2.328125 -9.609375 C 3.078125 -9.609375 3.535156 -9.46875 3.703125 -9.1875 C 3.828125 -8.976562 3.890625 -8.726562 3.890625 -8.4375 C 3.929688 -8.519531 4.035156 -8.640625 4.203125 -8.796875 C 4.378906 -8.960938 4.546875 -9.09375 4.703125 -9.1875 C 5.117188 -9.46875 5.578125 -9.609375 6.078125 -9.609375 Z M 6.078125 -9.609375 "/></g></g></g><g fill="#ffffff" fill-opacity="1"><g transform="translate(50.60832, 18.743932)"><g><path d="M 7.171875 -13.609375 C 7.265625 -13.785156 7.425781 -13.910156 7.65625 -13.984375 C 7.882812 -14.054688 8.191406 -14.09375 8.578125 -14.09375 C 8.960938 -14.09375 9.269531 -14.054688 9.5 -13.984375 C 9.726562 -13.910156 9.890625 -13.78125 9.984375 -13.59375 C 10.078125 -13.414062 10.128906 -13.253906 10.140625 -13.109375 C 10.160156 -12.972656 10.171875 -12.765625 10.171875 -12.484375 L 10.171875 -1.609375 C 10.171875 -1.328125 10.160156 -1.113281 10.140625 -0.96875 C 10.128906 -0.832031 10.070312 -0.679688 9.96875 -0.515625 C 9.789062 -0.179688 9.28125 -0.015625 8.4375 -0.015625 C 7.59375 -0.015625 7.117188 -0.3125 7.015625 -0.90625 C 6.503906 -0.320312 5.796875 -0.03125 4.890625 -0.03125 C 3.796875 -0.03125 2.796875 -0.507812 1.890625 -1.46875 C 0.992188 -2.425781 0.546875 -3.535156 0.546875 -4.796875 C 0.546875 -6.066406 1 -7.179688 1.90625 -8.140625 C 2.8125 -9.109375 3.804688 -9.59375 4.890625 -9.59375 C 5.785156 -9.59375 6.484375 -9.285156 6.984375 -8.671875 L 6.984375 -12.515625 C 6.984375 -12.785156 6.988281 -12.988281 7 -13.125 C 7.019531 -13.269531 7.078125 -13.429688 7.171875 -13.609375 Z M 4.203125 -3.6875 C 4.523438 -3.363281 4.910156 -3.203125 5.359375 -3.203125 C 5.804688 -3.203125 6.175781 -3.363281 6.46875 -3.6875 C 6.769531 -4.019531 6.921875 -4.382812 6.921875 -4.78125 C 6.921875 -5.175781 6.78125 -5.546875 6.5 -5.890625 C 6.21875 -6.234375 5.832031 -6.40625 5.34375 -6.40625 C 4.851562 -6.40625 4.460938 -6.234375 4.171875 -5.890625 C 3.878906 -5.554688 3.734375 -5.1875 3.734375 -4.78125 C 3.734375 -4.382812 3.890625 -4.019531 4.203125 -3.6875 Z M 4.203125 -3.6875 "/></g></g></g><g fill="#ffffff" fill-opacity="1"><g transform="translate(61.504596, 18.743932)"><g><path d="M 3.5625 -3.015625 C 3.757812 -2.804688 3.859375 -2.378906 3.859375 -1.734375 L 3.859375 -1.65625 C 3.859375 -1.363281 3.847656 -1.144531 3.828125 -1 C 3.816406 -0.863281 3.753906 -0.703125 3.640625 -0.515625 C 3.460938 -0.160156 3.003906 0.015625 2.265625 0.015625 C 1.535156 0.015625 1.050781 -0.0976562 0.8125 -0.328125 C 0.570312 -0.554688 0.453125 -0.992188 0.453125 -1.640625 L 0.453125 -1.71875 C 0.453125 -2 0.460938 -2.210938 0.484375 -2.359375 C 0.503906 -2.503906 0.5625 -2.664062 0.65625 -2.84375 C 0.84375 -3.207031 1.300781 -3.390625 2.03125 -3.390625 C 2.769531 -3.390625 3.28125 -3.265625 3.5625 -3.015625 Z M 3.5625 -3.015625 "/></g></g></g><g fill="#ffffff" fill-opacity="1"><g transform="translate(65.823021, 18.743932)"><g><path d="M 0.734375 -8 C 0.734375 -8.28125 0.738281 -8.488281 0.75 -8.625 C 0.769531 -8.769531 0.820312 -8.9375 0.90625 -9.125 C 1.082031 -9.4375 1.554688 -9.59375 2.328125 -9.59375 C 2.910156 -9.59375 3.328125 -9.488281 3.578125 -9.28125 C 3.785156 -9.113281 3.894531 -8.851562 3.90625 -8.5 C 3.914062 -8.375 3.921875 -8.195312 3.921875 -7.96875 L 3.921875 -1.59375 C 3.921875 -1.3125 3.910156 -1.097656 3.890625 -0.953125 C 3.867188 -0.816406 3.8125 -0.65625 3.71875 -0.46875 C 3.5625 -0.15625 3.09375 0 2.3125 0 C 1.550781 0 1.082031 -0.164062 0.90625 -0.5 C 0.820312 -0.675781 0.769531 -0.832031 0.75 -0.96875 C 0.738281 -1.101562 0.734375 -1.316406 0.734375 -1.609375 Z M 3.71875 -11.390625 C 3.632812 -11.210938 3.476562 -11.085938 3.25 -11.015625 C 3.019531 -10.941406 2.710938 -10.90625 2.328125 -10.90625 C 1.941406 -10.90625 1.632812 -10.941406 1.40625 -11.015625 C 1.175781 -11.085938 1.015625 -11.210938 0.921875 -11.390625 C 0.828125 -11.578125 0.769531 -11.738281 0.75 -11.875 C 0.738281 -12.019531 0.734375 -12.226562 0.734375 -12.5 C 0.734375 -12.78125 0.738281 -12.988281 0.75 -13.125 C 0.769531 -13.269531 0.820312 -13.429688 0.90625 -13.609375 C 1.082031 -13.929688 1.554688 -14.09375 2.328125 -14.09375 C 3.097656 -14.09375 3.5625 -13.929688 3.71875 -13.609375 C 3.8125 -13.421875 3.867188 -13.253906 3.890625 -13.109375 C 3.910156 -12.972656 3.921875 -12.765625 3.921875 -12.484375 C 3.921875 -12.210938 3.910156 -12.003906 3.890625 -11.859375 C 3.867188 -11.722656 3.8125 -11.566406 3.71875 -11.390625 Z M 3.71875 -11.390625 "/></g></g></g><g fill="#ffffff" fill-opacity="1"><g transform="translate(70.469426, 18.743932)"><g><path d="M 0.453125 -4.796875 C 0.453125 -6.253906 0.960938 -7.457031 1.984375 -8.40625 C 3.003906 -9.351562 4.171875 -9.828125 5.484375 -9.828125 C 6.796875 -9.828125 7.957031 -9.351562 8.96875 -8.40625 C 9.976562 -7.46875 10.484375 -6.269531 10.484375 -4.8125 C 10.484375 -3.800781 10.222656 -2.90625 9.703125 -2.125 C 9.179688 -1.34375 8.546875 -0.765625 7.796875 -0.390625 C 7.046875 -0.015625 6.269531 0.171875 5.46875 0.171875 C 4.664062 0.171875 3.882812 -0.0234375 3.125 -0.421875 C 2.375 -0.816406 1.738281 -1.398438 1.21875 -2.171875 C 0.707031 -2.953125 0.453125 -3.828125 0.453125 -4.796875 Z M 4.265625 -3.484375 C 4.648438 -3.191406 5.039062 -3.046875 5.4375 -3.046875 C 5.84375 -3.046875 6.242188 -3.195312 6.640625 -3.5 C 7.046875 -3.800781 7.25 -4.25 7.25 -4.84375 C 7.25 -5.445312 7.0625 -5.894531 6.6875 -6.1875 C 6.3125 -6.476562 5.90625 -6.625 5.46875 -6.625 C 5.03125 -6.625 4.625 -6.46875 4.25 -6.15625 C 3.875 -5.851562 3.6875 -5.40625 3.6875 -4.8125 C 3.6875 -4.226562 3.878906 -3.785156 4.265625 -3.484375 Z M 4.265625 -3.484375 "/></g></g></g></g></g></g><g clip-path="url(#62a004d31a)"><path fill="#ffffff" d="M 5.910156 6.035156 C 6.175781 6.035156 6.382812 5.757812 6.253906 5.472656 C 6.191406 5.339844 6.054688 5.265625 5.910156 5.265625 C 5.691406 5.269531 5.511719 5.089844 5.511719 4.867188 L 5.511719 2.386719 C 5.511719 2.167969 5.6875 1.988281 5.910156 1.988281 L 6.085938 1.988281 C 6.304688 1.988281 6.484375 2.167969 6.484375 2.386719 L 6.484375 3.359375 L 7.25 3.359375 L 7.25 2.386719 C 7.25 1.746094 6.726562 1.222656 6.085938 1.222656 L 5.910156 1.222656 C 5.265625 1.222656 4.742188 1.746094 4.742188 2.386719 L 4.742188 4.867188 C 4.742188 5.511719 5.265625 6.035156 5.910156 6.035156 " fill-opacity="1" fill-rule="nonzero"/></g><g clip-path="url(#f5a702f755)"><path fill="#ffffff" d="M 19.832031 6.035156 C 20.042969 6.035156 20.214844 5.863281 20.214844 5.652344 C 20.214844 5.4375 20.042969 5.265625 19.832031 5.265625 C 19.613281 5.265625 19.433594 5.085938 19.433594 4.867188 L 19.433594 2.386719 C 19.433594 2.167969 19.613281 1.988281 19.832031 1.988281 L 20.007812 1.988281 C 20.226562 1.988281 20.40625 2.167969 20.40625 2.390625 L 20.40625 3.359375 L 21.175781 3.359375 L 21.175781 2.386719 C 21.175781 1.746094 20.652344 1.222656 20.007812 1.222656 L 19.832031 1.222656 C 19.1875 1.222656 18.667969 1.746094 18.667969 2.386719 L 18.667969 4.867188 C 18.667969 5.511719 19.191406 6.035156 19.832031 6.035156 " fill-opacity="1" fill-rule="nonzero"/></g><g clip-path="url(#6283a00dc5)"><path fill="#ffffff" d="M 12.871094 6.035156 C 13.140625 6.035156 13.34375 5.757812 13.214844 5.472656 C 13.152344 5.339844 13.019531 5.265625 12.871094 5.265625 C 12.652344 5.269531 12.472656 5.089844 12.472656 4.867188 L 12.472656 2.386719 C 12.472656 2.167969 12.652344 1.988281 12.871094 1.988281 L 13.046875 1.988281 C 13.265625 1.988281 13.445312 2.167969 13.445312 2.390625 L 13.445312 3.359375 L 14.210938 3.359375 L 14.210938 2.386719 C 14.210938 1.746094 13.6875 1.222656 13.046875 1.222656 L 12.871094 1.222656 C 12.226562 1.222656 11.707031 1.746094 11.707031 2.386719 L 11.707031 4.867188 C 11.707031 5.511719 12.226562 6.035156 12.871094 6.035156 " fill-opacity="1" fill-rule="nonzero"/></g><g clip-path="url(#44b5da3bba)"><path fill="#ffffff" d="M 22.195312 22.828125 C 22.195312 23.464844 21.636719 23.980469 20.949219 23.980469 L 4.945312 23.980469 C 4.257812 23.980469 3.699219 23.464844 3.699219 22.828125 L 3.699219 8.804688 L 22.195312 8.804688 Z M 22.8125 3.867188 L 19.945312 3.867188 L 19.945312 4.761719 C 20.386719 4.816406 20.726562 5.195312 20.726562 5.652344 C 20.726562 6.144531 20.324219 6.542969 19.832031 6.542969 C 18.910156 6.542969 18.15625 5.792969 18.15625 4.867188 L 18.15625 3.867188 L 12.984375 3.867188 L 12.984375 4.761719 C 13.433594 4.820312 13.777344 5.210938 13.765625 5.675781 C 13.75 6.171875 13.3125 6.558594 12.816406 6.542969 C 11.917969 6.515625 11.195312 5.773438 11.195312 4.867188 L 11.195312 3.867188 L 6.019531 3.867188 L 6.019531 4.761719 C 6.46875 4.820312 6.816406 5.210938 6.804688 5.675781 C 6.789062 6.171875 6.351562 6.558594 5.855469 6.542969 C 4.957031 6.515625 4.230469 5.773438 4.230469 4.867188 L 4.230469 3.867188 L 3.105469 3.867188 C 2.257812 3.867188 1.570312 4.558594 1.570312 5.40625 L 1.570312 23.871094 C 1.570312 25.113281 2.574219 26.117188 3.8125 26.117188 L 22.105469 26.117188 C 23.34375 26.117188 24.347656 25.113281 24.347656 23.871094 L 24.347656 5.40625 C 24.347656 4.558594 23.660156 3.867188 22.8125 3.867188 " fill-opacity="1" fill-rule="nonzero"/></g><path fill="#ffffff" d="M 16.125 17.460938 C 15.949219 17.632812 15.863281 17.894531 15.902344 18.140625 L 16.25 20.183594 C 16.359375 20.804688 15.699219 21.285156 15.132812 20.988281 L 13.308594 20.03125 C 13.085938 19.921875 12.816406 19.921875 12.589844 20.03125 L 10.765625 20.988281 C 10.199219 21.285156 9.535156 20.804688 9.640625 20.183594 L 9.988281 18.140625 C 10.035156 17.894531 9.953125 17.632812 9.765625 17.460938 L 8.296875 16.023438 C 7.832031 15.574219 8.085938 14.800781 8.722656 14.707031 L 10.765625 14.414062 C 11.011719 14.367188 11.230469 14.210938 11.34375 13.980469 L 12.257812 12.136719 C 12.535156 11.566406 13.355469 11.566406 13.640625 12.136719 L 14.554688 13.980469 C 14.664062 14.210938 14.878906 14.367188 15.132812 14.414062 L 17.175781 14.707031 C 17.8125 14.800781 18.058594 15.574219 17.601562 16.023438 L 16.125 17.460938 " fill-opacity="1" fill-rule="nonzero"/></svg>